# xmcd
#
# Track frame offsets: 
#        150
#        36703
#        76030
#        102613
#        134310
#        158570
#
# Disc length: 2710 seconds
#
# Revision: 1
# Processed by: cddbd v1.5.2PL0 Copyright (c) Steve Scherf et al.
# Submitted via: ExactAudioCopy v0.99pb5
#
DISCID=470a9406
DTITLE=Hampton Hawes Trio - The Seance
DYEAR=1966
DGENRE=Jazz
TTITLE0=The Seance
TTITLE1=Oleo
TTITLE2=Easy Street
TTITLE3=Suddenly I Thought Of You
TTITLE4=For Heaven´s Sake
TTITLE5=My Romance
EXTD=YEAR: 1969
EXTT0=
EXTT1=
EXTT2=
EXTT3=
EXTT4=
EXTT5=
PLAYORDER=
